PathFileType	4	(X/Y/Z)	/Users/itak/Documents/Research/Walk-IL/dataset/trc/00149_00007.trc
DataRate	CameraRate	NumFrames	NumMarkers	Units	OrigDataRate	OrigDataStartFrame	OrigNumFrames
100.000000	100.000000	4	54	mm	100.000000	326	523
Frame#	Time	RPSI			LPSI			L3			STRN			T10			C7			CLAV			RBAK			LBAK			LSHO			LUPA			LAEL			LAOL			LWTS			LWPS			LFRA			LIFD			LHPS			LHTS			RSHO			RUPA			RAEL			RAOL			RWTS			RWPS			RFRA			RIFD			RHTS			RHPS			RBHD			LFHD			RFHD			LBHD			LHIP			RHIP			RASI			LASI			LKNE			LTHI			LANK			LTIP			LTOE			LMT1			LMT5			LHEE			RKNE			RANK			RTIP			RTOE			RMT1			RMT5			RHEE			RTHI			*53			
		X1	Y1	Z1	X2	Y2	Z2	X3	Y3	Z3	X4	Y4	Z4	X5	Y5	Z5	X6	Y6	Z6	X7	Y7	Z7	X8	Y8	Z8	X9	Y9	Z9	X10	Y10	Z10	X11	Y11	Z11	X12	Y12	Z12	X13	Y13	Z13	X14	Y14	Z14	X15	Y15	Z15	X16	Y16	Z16	X17	Y17	Z17	X18	Y18	Z18	X19	Y19	Z19	X20	Y20	Z20	X21	Y21	Z21	X22	Y22	Z22	X23	Y23	Z23	X24	Y24	Z24	X25	Y25	Z25	X26	Y26	Z26	X27	Y27	Z27	X28	Y28	Z28	X29	Y29	Z29	X30	Y30	Z30	X31	Y31	Z31	X32	Y32	Z32	X33	Y33	Z33	X34	Y34	Z34	X35	Y35	Z35	X36	Y36	Z36	X37	Y37	Z37	X38	Y38	Z38	X39	Y39	Z39	X40	Y40	Z40	X41	Y41	Z41	X42	Y42	Z42	X43	Y43	Z43	X44	Y44	Z44	X45	Y45	Z45	X46	Y46	Z46	X47	Y47	Z47	X48	Y48	Z48	X49	Y49	Z49	X50	Y50	Z50	X51	Y51	Z51	X52	Y52	Z52	X53	Y53	Z53	X54	Y54	Z54	

327	3.26	2.702168226242065	1105.707275390625	-77.89627838134766	106.5553436279297	1109.442626953125	-159.9942016601562	47.31701278686523	1144.685302734375	-128.1326751708984	173.3935699462891	1346.25439453125	47.58057022094727	33.04148864746094	1292.134155273438	-163.2432098388672	55.36344146728516	1585.180786132812	-143.0260314941406	149.9832916259766	1480.025146484375	14.95111179351807	-39.88407135009766	1396.883544921875	-140.1850280761719	137.5684509277344	1568.080688476562	-204.3690032958984	240.9974060058594	1557.73681640625	-167.5442962646484	294.9616088867188	1429.785522460938	-223.2441101074219	333.8775939941406	1213.944580078125	-224.7413177490234	250.3659973144531	1193.951049804688	-246.9395141601562	378.8515930175781	971.440185546875	-94.02561187744141	359.2899780273438	934.2426147460938	-172.8992004394531	357.49951171875	1100.093627929688	-204.9929351806641	390.1279602050781	782.849853515625	-49.16542434692383	382.8540344238281	864.7882690429688	-140.2948455810547	404.740234375	886.6478271484375	-77.92034912109375	-65.78151702880859	1562.073974609375	2.787940979003906	-125.7143325805664	1486.86328125	19.6024284362793	-146.7936859130859	1193.5390625	10.34521389007568	-62.7747802734375	1194.533203125	-40.36294555664062	-63.56291198730469	946.1123657226562	121.2414398193359	-128.8401641845703	932.1927490234375	71.08523559570312	-148.3647766113281	1120.058959960938	36.79673385620117	-37.08563232421875	751.118408203125	122.7780914306641	-54.41246032714844	836.2665405273438	143.32373046875	-113.3230285644531	830.7880249023438	99.70738983154297	9.650241851806641	1760.078125	-65.53205108642578	198.3381042480469	1821.515991210938	33.5792121887207	81.05133819580078	1815.64208984375	89.891845703125	128.5601043701172	1770.014770507812	-128.413330078125	250.4854125976562	1023.927551269531	-153.7225189208984	-11.56459140777588	1015.9140625	100.6354522705078	77.14775848388672	1088.93701171875	125.5416107177734	281.3690795898438	1087.798583984375	-40.84993743896484	257.8968811035156	511.9428405761719	-140.3133392333984	259.3341064453125	666.608154296875	-159.1728820800781	1.81724488735199	156.7626800537109	-455.2113037109375	130.9463043212891	357.6727905273438	-332.5786743164062	81.73082733154297	28.29694366455078	-304.3431701660156	17.82752418518066	61.99380874633789	-317.6875305175781	73.80657958984375	63.09610366821289	-419.6027221679688	-71.65956878662109	210.6058044433594	-441.6886291503906	105.6679840087891	537.66845703125	145.6619873046875	154.8070068359375	24.51423072814941	78.38001251220703	104.557991027832	400.0239868164062	139.4820251464844	284.341796875	50.31588745117188	274.40576171875	305.7080993652344	43.49502944946289	203.9015197753906	184.1296081542969	38.39889144897461	209.5007019042969	179.2838745117188	27.75601577758789	8.523067474365234	34.51619720458984	809.6834106445312	140.4015350341797	nan	nan	nan	
328	3.27	7.313445568084717	1106.094604492188	-70.55722045898438	111.2501907348633	1109.235717773438	-152.1846771240234	51.51459121704102	1144.905883789062	-120.6191864013672	177.0285034179688	1347.062622070312	55.30077743530273	37.75494766235352	1292.2685546875	-155.6712341308594	59.24629592895508	1585.441162109375	-136.1691436767578	153.5724639892578	1480.751708984375	22.34100341796875	-35.86978530883789	1397.049926757812	-133.0955657958984	141.6385040283203	1568.252685546875	-197.2168273925781	245.0319366455078	1558.10791015625	-160.0739898681641	298.9413452148438	1429.97265625	-215.4695434570312	337.1775817871094	1214.02734375	-217.0036926269531	253.6285400390625	1194.39990234375	-239.1837615966797	381.0708618164062	970.903564453125	-86.91085052490234	361.4361267089844	934.069580078125	-165.9274291992188	360.3356628417969	1100.019653320312	-197.5313262939453	390.9915466308594	782.029541015625	-42.59845352172852	384.4609985351562	864.3333740234375	-133.5313262939453	406.3572387695312	885.8474731445312	-71	-62.20688629150391	1562.557250976562	9.42988395690918	-122.1693267822266	1487.389892578125	26.28567314147949	-143.3670654296875	1193.985961914062	18.13713073730469	-59.33270645141602	1194.8271484375	-32.62419509887695	-59.51918029785156	947.4320068359375	130.4610443115234	-124.7678909301758	932.9890747070312	80.44698333740234	-144.8358306884766	1120.628662109375	45.00011444091797	-32.34273147583008	752.5534057617188	133.3621520996094	-50.00897598266602	837.810791015625	153.2975311279297	-108.8646240234375	831.8234252929688	109.723991394043	13.13345241546631	1760.3779296875	-59.31869888305664	201.2722320556641	1822.358642578125	40.33358764648438	83.78847503662109	1816.477172851562	96.23800659179688	132.2982025146484	1770.448120117188	-121.8898315429688	255.0787200927734	1023.544921875	-144.5280456542969	-8.030290603637695	1017.01318359375	108.0891265869141	80.5633544921875	1089.873168945312	133.47265625	285.3954467773438	1088.444091796875	-32.12763214111328	269.7515869140625	511.5492248535156	-123.9056854248047	268.9172668457031	666.1517944335938	-145.0250549316406	10.3694543838501	166.6550445556641	-447.089599609375	142.3000640869141	361.7085266113281	-318.9378967285156	84.40179443359375	27.22181701660156	-301.7762145996094	22.65545272827148	65.36563110351562	-313.6541748046875	78.87355804443359	69.08272552490234	-415.049072265625	-61.4928092956543	221.9750213623047	-431.6730346679688	107.3112106323242	537.3981323242188	149.9064788818359	154.9023895263672	24.54698181152344	78.56931304931641	105.675895690918	399.748779296875	142.6442108154297	284.6953430175781	48.71361923217773	275.1109008789062	306.1068115234375	43.00467300415039	204.1546783447266	184.3602600097656	38.04639053344727	209.7586822509766	179.1994476318359	27.88363456726074	8.648715019226074	37.47548294067383	809.9793090820312	146.7062072753906	nan	nan	nan	
329	3.28	11.79543209075928	1106.311889648438	-63.32267379760742	115.7812194824219	1108.89501953125	-144.5957336425781	55.62804794311523	1144.968872070312	-113.3006439208984	180.6440887451172	1347.726318359375	62.83062744140625	42.26325607299805	1292.363159179688	-148.2536163330078	63.09211349487305	1585.648681640625	-129.3505859375	157.1546173095703	1481.33935546875	29.59246253967285	-32.00450897216797	1397.179931640625	-126.1351928710938	145.6551361083984	1568.35400390625	-190.1519622802734	249.0267944335938	1558.301879882812	-152.7532806396484	302.8255004882812	1429.961791992188	-207.8340454101562	340.5048217773438	1213.922241210938	-209.3081970214844	256.9328002929688	1194.6171875	-231.5111694335938	383.3077697753906	970.1730346679688	-79.88468933105469	363.6586303710938	933.7234497070312	-159.0645141601562	363.2142639160156	1099.76806640625	-190.1087341308594	391.9535522460938	781.0197143554688	-36.19342041015625	386.16357421875	863.70849609375	-126.8967132568359	408.0298767089844	884.8662109375	-64.19896697998047	-58.63516616821289	1562.932739257812	16.06960296630859	-118.6211395263672	1487.808471679688	32.98337936401367	-139.9580993652344	1194.312377929688	26.09688758850098	-56.07863998413086	1194.977661132812	-24.88139915466309	-55.36214447021484	948.7001342773438	139.7598266601562	-120.7007293701172	933.7102661132812	90.0472412109375	-141.3620910644531	1121.096923828125	53.36536026000977	-27.5367546081543	753.9539184570312	144.1037902832031	-45.46923446655273	839.3270263671875	163.4205627441406	-104.3660430908203	832.8118896484375	120.007682800293	16.64914512634277	1760.532470703125	-53.13111114501953	204.2177734375	1823.132568359375	47.0528450012207	86.53680419921875	1817.237060546875	102.5378570556641	136.1100769042969	1770.765991210938	-115.4160079956055	259.4822998046875	1023.057067871094	-135.5816192626953	-4.56007194519043	1018.043273925781	115.1633377075195	83.93006896972656	1090.680908203125	141.1901550292969	289.3509826660156	1088.997192382812	-23.6674976348877	281.4821472167969	511.3345031738281	-107.0968780517578	278.4537048339844	665.755615234375	-130.6874389648438	19.65833473205566	176.2185821533203	-438.0166931152344	153.9680328369141	365.5140686035156	-304.7281799316406	88.43180847167969	26.40946769714355	-297.9431762695312	28.54662132263184	69.0849609375	-308.4094543457031	85.14373016357422	75.48295593261719	-409.302001953125	-50.91945648193359	232.5728149414062	-420.8458557128906	108.7236938476562	537.05322265625	153.8363494873047	155.0045471191406	24.58729934692383	78.70542144775391	106.6066131591797	399.4304504394531	145.5027313232422	284.9977416992188	47.43855285644531	275.6858215332031	306.41455078125	42.63555145263672	204.3660583496094	184.5173034667969	37.76482009887695	209.9393310546875	179.1643829345703	27.99069976806641	8.73160457611084	40.23089981079102	810.1610107421875	152.7022094726562	nan	nan	nan	
330	3.29	16.18128395080566	1106.374877929688	-56.16365432739258	120.2008438110352	1108.4716796875	-137.2282867431641	59.73209762573242	1144.901245117188	-106.1810989379883	184.2257232666016	1348.287963867188	70.17528533935547	46.58083724975586	1292.439697265625	-141.0155029296875	66.90316772460938	1585.828369140625	-122.5909729003906	160.7205352783203	1481.829345703125	36.69684219360352	-28.2773551940918	1397.302124023438	-119.3302688598633	149.6187896728516	1568.417236328125	-183.1894836425781	252.9846496582031	1558.369018554688	-145.5954132080078	306.6204223632812	1429.804077148438	-200.3505096435547	343.8479919433594	1213.675659179688	-201.6619567871094	260.2598876953125	1194.6533203125	-223.9174041748047	385.5579833984375	969.296875	-72.95426940917969	365.9303283691406	933.2517700195312	-152.3162536621094	366.12158203125	1099.385986328125	-182.7316131591797	393.0434265136719	779.8699340820312	-29.97317886352539	387.9568176269531	862.967041015625	-120.4022216796875	409.7656860351562	883.7554321289062	-57.53424072265625	-55.07782363891602	1563.23486328125	22.66972541809082	-115.0823974609375	1488.149047851562	39.65803146362305	-136.5397491455078	1194.552734375	34.21166229248047	-52.97010803222656	1195.02001953125	-17.12569618225098	-51.10575485229492	949.9332885742188	149.1239776611328	-116.6441192626953	934.3876953125	99.84680938720703	-137.9176940917969	1121.502563476562	61.87556457519531	-22.7187385559082	755.3267211914062	154.9756774902344	-40.83424758911133	840.8216552734375	173.6658325195312	-99.86788177490234	833.7821655273438	130.5156555175781	20.19351005554199	1760.592529296875	-46.96482086181641	207.1854553222656	1823.856201171875	53.7475700378418	89.30205535888672	1817.938232421875	108.7932739257812	139.9765930175781	1771.001586914062	-108.9705505371094	263.775634765625	1022.533813476562	-126.8174591064453	-1.186429500579834	1019.01708984375	121.8495559692383	87.20693206787109	1091.40380859375	148.685302734375	293.25390625	1089.5166015625	-15.42427730560303	293.0250549316406	511.351318359375	-89.94441223144531	287.8909301757812	665.4822387695312	-116.1978912353516	29.65541076660156	185.1740417480469	-427.967529296875	165.8613586425781	369.0629272460938	-289.993896484375	94.15223693847656	26.15453338623047	-292.5883178710938	35.70603942871094	73.07866668701172	-301.7341918945312	92.78031921386719	82.08285522460938	-402.1598510742188	-40.0196647644043	242.122802734375	-409.2921752929688	109.9430923461914	536.6636352539062	157.4745941162109	155.0995483398438	24.62706756591797	78.79715728759766	107.3878021240234	399.0935668945312	148.0977630615234	285.2409362792969	46.47882080078125	276.1448364257812	306.6304016113281	42.39382934570312	204.5418548583984	184.6073760986328	37.54678344726562	210.0638885498047	179.1601409912109	28.07856750488281	8.781190872192383	42.79637908935547	810.2577514648438	158.408447265625	nan	nan	nan	
